<svg xmlns="http://www.w3.org/2000/svg" width="302" height="302" fill="none"><path fill="#F5AF41" d="M139.705 129.074c-8.284-6.092-11.721-15.66-8.122-21.991.194-.349.414-.697.66-1.023 4.615-6.284 15.445-6.171 24.189.252 8.74 6.431 12.086 16.733 7.465 23.015-1.221 1.661-2.873 2.87-4.806 3.639-5.386 2.147-12.953.833-19.386-3.892Zm54.7-74.418C147.875 20.452 90.23 19.843 65.644 53.292a54.546 54.546 0 0 0-5.937 10.232c-14.947 33.594 3.633 81.348 45.674 112.247 15.009 11.027 31.173 18.564 47.01 22.588 7.829 1.989 15.583 3.121 23.072 3.395 24.337.886 45.941-7.296 58.673-24.621a54.39 54.39 0 0 0 4.573-7.38c17.36-33.697-1.064-83.317-44.304-115.097Z"/><path fill="#CC8145" d="M181.494 197.846a100.293 100.293 0 0 1-6.574-.221c-.046-2.92-.03-5.834.225-8.315 2.446.263 4.871.439 7.271.526a95.9 95.9 0 0 0 3.548.065c18.929 0 35.98-5.62 48.16-16.891a53.845 53.845 0 0 1-1.878 2.733c-4.49 6.108-10.141 11.035-16.658 14.781-9.981 4.884-21.63 7.322-34.094 7.322Zm-34.085-5.61c-13.411-4.322-26.889-11.139-39.545-20.438-32.416-23.825-50.885-57.669-50.79-87.32.449-7.135 2.054-13.961 4.894-20.257.235.058.476.1.723.126-3.718 19.431 1.694 41.806 14.719 62.466-1.946 6.334-1.027 11.889 2.804 15.647 2.558 2.51 6.022 3.77 9.75 3.77.77 0 1.552-.053 2.338-.161 5.908 6.341 12.601 12.325 20.03 17.785 1.147.843 2.302 1.666 3.463 2.469.187 3.599.97 6.801 3.285 9.182 2.46 2.528 6.345 3.757 11.861 3.757.268 0 .541-.003.814-.009a7.553 7.553 0 0 0 4.129-1.308 132.853 132.853 0 0 0 14.145 5.734 92.69 92.69 0 0 0-2.62 8.557Zm22.973-63.373a40.747 40.747 0 0 1-3.223-.515c3.213-7.305-.562-17.475-9.338-23.926-4.826-3.545-10.274-5.314-15.201-5.314-3.791 0-7.275 1.048-9.926 3.138a37.94 37.94 0 0 1-2.019-4.77c3.241-2.931 7.697-4.407 12.562-4.407 5.645 0 11.848 1.986 17.359 5.986 11.016 7.997 15.234 21.113 9.786 29.808Z"/><path fill="#BA73C9" d="M162.517 127.149c-5.034-1.591-10.116-4.142-14.883-7.646-5.165-3.796-9.42-8.322-12.555-13.128 1.853-1.764 4.507-2.637 7.499-2.637 3.924 0 8.428 1.503 12.464 4.469 7.309 5.374 10.493 13.645 7.475 18.942Z"/><path fill="#6D184E" d="M163.898 129.329h.004-.004Zm-21.32-25.59c-3.549 0-6.621 1.226-8.446 3.711-1.775 2.414-2.106 5.73-.937 9.337 1.261 3.883 4.066 7.574 7.901 10.393 7.684 5.649 17.064 5.987 20.908.757 3.846-5.231.721-14.08-6.963-19.73-4.035-2.966-8.541-4.468-12.463-4.468Zm10.937 32.54c-4.927 0-10.375-1.768-15.201-5.314-4.621-3.398-8.025-7.918-9.586-12.728-1.649-5.086-1.075-9.905 1.619-13.568 5.378-7.318 17.703-7.427 27.476-.246 9.77 7.182 13.346 18.977 7.966 26.296-2.723 3.703-7.223 5.56-12.274 5.56ZM120.759 30.948c-23.083 0-41.954 8.407-53.22 23.734-23.777 32.35-6.177 85.82 39.233 119.197 45.41 33.376 101.698 34.212 125.474 1.864 23.776-32.35 6.176-85.821-39.233-119.198-22.11-16.252-47.411-25.34-71.242-25.592a90.114 90.114 0 0 0-1.012-.005Zm58.27 173.224c-.355 0-.708-.001-1.064-.005-24.808-.263-51.079-9.675-73.974-26.504-22.897-16.829-39.722-39.092-47.377-62.689-7.745-23.872-5.209-46.273 7.14-63.074 12.35-16.801 32.958-25.925 58.067-25.643 24.807.263 51.077 9.675 73.972 26.503 22.898 16.828 39.721 39.092 47.377 62.691 7.746 23.871 5.21 46.271-7.139 63.072-12.175 16.564-32.389 25.649-57.002 25.649Z"/><path fill="#F3B" d="M195.937 121.921c-9.488 12.907-31.737 12.672-49.694-.527-15.084-11.087-22.338-27.791-18.652-40.505.259-.687 5.185-13.33 14.55-2.666 9.625 10.959 11.445 12.863 23.185 9.372 11.74-3.49 4.599 18.027 16.453 19.875 11.854 1.848 18.057 3.55 14.158 14.451Zm-.508-69.64c-22.433-16.486-47.38-25.356-70.145-26.573l.011-.01c-30.987-4.092-49.4 6.815-58.278 17.724-7.96 9.777-8.256 19.558-3.075 18.528 1.827-.364 3.394-.443 4.746-.329-.137.646-.275 1.29-.395 1.96-5.497 30.697 27.572 36.521 15.038 56.214-12.534 19.692 3.43 29.489 16.195 21.013l.09-.059c5.685-3.713 13.44-1.461 16.347 4.677 1.438 3.038 2.578 6.693 2.448 10.512-.395 11.66-2.56 21.311 13.294 20.967 4.676-.1 6.743-5.703 5.531-10.252-2.739-10.291 10.684-12.739 15.896-5.866 1.242 1.637 2.143 3.361 2.488 4.999.542 4.927-.203 10.594-2.34 15.94-5.219 13.061-12.375 41.377 8.714 43.673 10.734 1.167 10.955-10.728 10.691-22.623-.253-11.476-.961-22.951 6.888-22.697 15.98.517 17.661 8.465 32.532-2.43 14.87-10.895 22.696-18.186 29.026-14.87 6.331 3.317 6.4-21.768 6.4-21.768-.257-30.213-19.157-64.514-52.102-88.73Z"/><path fill="#D32B9A" d="M105.01 87.832a3.86 3.86 0 0 1-2.252-.727 3.862 3.862 0 0 1-1.57-2.523l-1.579-9.542a3.887 3.887 0 0 1 3.837-4.518c.806 0 1.586.25 2.253.727a3.85 3.85 0 0 1 1.57 2.522l1.58 9.543a3.856 3.856 0 0 1-.673 2.894 3.858 3.858 0 0 1-2.523 1.57c-.214.036-.43.054-.643.054Zm41.96-21.417a3.848 3.848 0 0 1-2.682-1.078L137.3 58.65a3.886 3.886 0 0 1-.12-5.49 3.857 3.857 0 0 1 2.719-1.196c.034-.002.067-.002.1-.002 1.003 0 1.945.384 2.67 1.078l6.988 6.688a3.887 3.887 0 0 1 .12 5.489 3.858 3.858 0 0 1-2.721 1.197l-.086.001Zm46.879 34.186a124.16 124.16 0 0 0-4.718-.808c-4.15-.647-5.973-3.709-7.093-7.263a3.89 3.89 0 0 1 2.155-3.025 3.887 3.887 0 0 1 5.19 1.792l4.231 8.7c.096.197.174.4.235.604Zm-69.658 37.921c-.119 0-.239-.005-.358-.015-.061-.006-.121-.014-.181-.021-.111-.25-.222-.495-.337-.737a11.211 11.211 0 0 0-2.964-3.829l.84-9.264a3.886 3.886 0 0 1 4.216-3.516 3.863 3.863 0 0 1 2.632 1.38c.664.797.978 1.805.884 2.838l-.873 9.632a3.862 3.862 0 0 1-1.381 2.632c-.704.586-1.573.9-2.478.9Zm-26.845-18.968a3.882 3.882 0 0 1-3.293-1.815 3.886 3.886 0 0 1 1.222-5.353l8.189-5.148a3.885 3.885 0 0 1 5.354 1.221 3.887 3.887 0 0 1-1.222 5.353l-8.19 5.148a3.862 3.862 0 0 1-2.06.594Zm73.064 52.365a3.882 3.882 0 0 1-3.293-1.815 3.888 3.888 0 0 1 1.221-5.353l8.189-5.148a3.865 3.865 0 0 1 2.06-.594 3.88 3.88 0 0 1 3.293 1.816 3.886 3.886 0 0 1-1.219 5.353l-8.191 5.147a3.85 3.85 0 0 1-2.06.594Zm27.946-22.707a3.87 3.87 0 0 1-1.547-.325 3.855 3.855 0 0 1-2.065-2.137l-3.545-9a3.86 3.86 0 0 1 .052-2.971 3.887 3.887 0 0 1 5.11-2.013 3.866 3.866 0 0 1 2.063 2.138l3.545 9.001c.38.964.363 2.02-.052 2.969a3.85 3.85 0 0 1-2.138 2.065 3.872 3.872 0 0 1-1.423.273Zm-18.627-74.939c-.362 0-.726-.052-1.083-.155l-9.293-2.683a3.888 3.888 0 0 1-2.652-4.808 3.89 3.89 0 0 1 4.806-2.653l9.295 2.685a3.888 3.888 0 0 1 2.652 4.807 3.853 3.853 0 0 1-1.855 2.322 3.856 3.856 0 0 1-1.87.485Zm34.974 47.351c-.356 0-.718-.049-1.075-.153l-9.293-2.684a3.874 3.874 0 0 1-2.645-2.619 21.124 21.124 0 0 0 1.6-1.925c.368-1.028.646-1.976.838-2.848a3.868 3.868 0 0 1 2.362-.069l9.291 2.685a3.887 3.887 0 0 1 2.653 4.808 3.89 3.89 0 0 1-3.731 2.805Zm8.372 41.356-.156-.003a3.861 3.861 0 0 1-2.697-1.244 3.85 3.85 0 0 1-1.029-2.787 3.858 3.858 0 0 1 1.242-2.699l7.102-6.568a3.868 3.868 0 0 1 2.788-1.028 3.849 3.849 0 0 1 2.699 1.243 3.885 3.885 0 0 1-.215 5.486l-7.102 6.568a3.855 3.855 0 0 1-2.632 1.032Zm-18.317-65.345a3.86 3.86 0 0 1-2.319-.774 3.864 3.864 0 0 1-1.515-2.557 3.886 3.886 0 0 1 3.293-4.394l9.574-1.372a3.85 3.85 0 0 1 2.879.737 3.856 3.856 0 0 1 1.515 2.556 3.855 3.855 0 0 1-.736 2.878 3.854 3.854 0 0 1-2.555 1.515l-9.576 1.372a3.933 3.933 0 0 1-.56.039Zm-62.94 52.759h-.067a3.885 3.885 0 0 1-2.633-6.673l6.952-6.725a3.875 3.875 0 0 1 2.699-1.089c1.016 0 2.032.395 2.79 1.182a3.848 3.848 0 0 1 1.092 2.763 3.847 3.847 0 0 1-1.182 2.726l-6.953 6.724a3.863 3.863 0 0 1-2.698 1.092Zm-26.916-89.546a3.883 3.883 0 0 1-3.186-1.655l-5.548-7.923a3.886 3.886 0 0 1 .953-5.407 3.852 3.852 0 0 1 2.221-.701 3.88 3.88 0 0 1 3.186 1.654l5.548 7.922a3.888 3.888 0 0 1-.953 5.409 3.868 3.868 0 0 1-2.221.701Z"/><path fill="#FF5CC9" d="M99.45 38.122c-.133 1.332-.746 2.553-1.566 3.612-6.644 8.589 1.627 28.078-9.278 29.024-10.998.95-10.237-23.814-2.965-31.861 9.183-10.165 14.421-6.901 13.81-.775Zm122.922 83.037s.651 14.049-14.145 21.766c-14.795 7.715 13.573 12.549 21.868-2.603 8.294-15.152-5.959-27.757-7.723-19.163Z"/><path fill="#F9D" d="M245.054 145.587c-2.392-30.465-21.996-63.986-54.757-88.07a159.463 159.463 0 0 0-8.978-6.135 163.796 163.796 0 0 0-3.454-2.125c-2.449 1.934-5.89 2.982-9.625 2.982-2.6 0-5.343-.508-7.993-1.575-7.218-2.912-11.326-9-10.156-14.398-.717-.245-1.431-.486-2.146-.718-10.727-3.504-21.415-5.532-31.688-6.08l.013-.007c-4.81-.633-9.332-.926-13.577-.926-1.944 0-3.83.06-5.658.178 4.656-.987 9.794-1.542 15.425-1.542 3.862 0 7.959.262 12.288.822.133.033.27.052.41.059 23.188 1.242 47.65 10.517 68.879 26.121 31.286 22.996 50.885 56.277 51.146 86.831a90.06 90.06 0 0 1-.129 4.583Z"/><path fill="#6D184E" d="M195.938 121.92h.004-.004ZM129.82 81.634c-3.439 12.066 3.874 27.622 17.813 37.868 16.755 12.314 37.385 12.864 46.209 1.3 1.07-3.107 1.198-5.277.394-6.63-1.443-2.43-6.659-3.422-12.817-4.382-7.376-1.148-8.963-8.226-10.122-13.394-.642-2.869-1.309-5.837-2.606-6.598-.565-.33-1.472-.316-2.695.049-13.301 3.954-15.91.98-25.618-10.075-1.548-1.762-3.823-3.789-5.854-3.413-2.351.43-4.159 3.877-4.704 5.275Zm44.813 52.119c-9.597 0-20.288-3.489-29.781-10.466-15.53-11.414-23.555-29.118-19.516-43.05a2.31 2.31 0 0 1 .057-.174c.459-1.22 3.014-7.36 8.286-8.324 3.372-.616 6.811 1.045 10.227 4.935 9.357 10.654 10.334 11.766 20.752 8.67 2.519-.75 4.676-.612 6.41.404 3.056 1.794 3.949 5.77 4.813 9.62 1.273 5.679 2.331 9.169 6.259 9.782 7.871 1.226 13.635 2.419 16.133 6.622 1.614 2.716 1.574 6.191-.124 10.939a2.376 2.376 0 0 1-.319.601c-5.115 6.96-13.612 10.441-23.197 10.441Zm-29.634 20.813c3.624 0 7.48 1.473 10.005 4.802 1.527 2.016 2.508 4.011 2.914 5.932.017.076.028.152.036.229.603 5.477-.282 11.538-2.491 17.069-4.404 11.017-7.825 26.751-2.965 34.837 1.976 3.288 5.166 5.129 9.75 5.629 2.175.235 3.795-.164 4.948-1.225 3.526-3.239 3.301-12.561 3.1-20.787-.214-8.874-.417-17.257 3.53-21.169 1.514-1.504 3.473-2.229 5.823-2.151 5.623.182 9.607 1.252 12.808 2.112 5.983 1.607 9.278 2.492 18.26-4.089a629.268 629.268 0 0 0 6.218-4.624c11.559-8.664 18.551-13.905 25.223-10.465 1.576-1.521 2.999-10.653 3.027-19.662-.263-30.553-19.86-63.835-51.148-86.831-21.228-15.603-45.69-24.88-68.878-26.122a2.278 2.278 0 0 1-.41-.058c-34.36-4.454-53.93 10.002-60.253 23.764-2.26 4.918-1.698 7.606-1.338 7.928-.005-.01.112.003.327-.04 1.92-.381 3.737-.503 5.4-.364a2.35 2.35 0 0 1 2.1 2.827l-.013.068a52.224 52.224 0 0 0-.367 1.82c-2.6 14.521 4.06 23.108 9.938 30.684 6.09 7.849 11.841 15.264 4.77 26.376-4.866 7.642-5.542 14.391-1.81 18.053 3.355 3.289 9.546 3.181 14.725-.256l.107-.071c3.253-2.125 7.292-2.732 11.079-1.665a13.696 13.696 0 0 1 8.671 7.304c1.9 4.011 2.799 7.913 2.674 11.596-.038 1.136-.094 2.253-.147 3.345-.277 5.607-.516 10.449 1.836 12.867 1.62 1.666 4.633 2.426 9.207 2.329.982-.021 1.768-.444 2.405-1.291 1.108-1.474 1.473-3.889.909-6.009-1.339-5.027.481-9.446 4.751-11.531 1.544-.756 3.38-1.161 5.279-1.161Zm18.401 73.26c-.538 0-1.09-.031-1.659-.094-6.06-.659-10.524-3.31-13.269-7.878-7.221-12.018.186-32.889 2.629-38.999 1.912-4.786 2.692-9.996 2.199-14.691-.276-1.195-.98-2.562-2.038-3.958-2.28-3.008-6.744-3.598-9.481-2.259-2.258 1.102-3.043 3.212-2.275 6.102.932 3.493.267 7.434-1.691 10.04-1.495 1.988-3.648 3.112-6.059 3.164-5.951.125-10.096-1.098-12.675-3.749-3.776-3.883-3.478-9.951-3.16-16.374.053-1.067.107-2.161.144-3.272.1-2.928-.649-6.1-2.224-9.427a8.998 8.998 0 0 0-5.702-4.793c-2.48-.699-5.119-.308-7.239 1.078l-.064.041c-7.138 4.74-15.614 4.615-20.621-.297-5.433-5.328-5.009-14.273 1.135-23.926 5.297-8.323 1.392-13.356-4.518-20.976-6.05-7.798-13.554-17.47-10.995-33.536a18.32 18.32 0 0 0-1.437.231c-2.11.42-3.976-.278-5.12-1.912-2.251-3.216-1.166-9.48 2.766-15.955 2.648-4.36 8.933-12.511 21.28-18.117 11.87-5.387 26.094-7.037 42.277-4.899l.045.006c24.019 1.34 49.286 10.927 71.171 27.013 32.456 23.854 52.786 58.57 53.062 90.602-.002.227-.021 5.012-.573 10.199-1.078 10.114-3.173 12.592-4.877 13.62-1.345.811-2.902.828-4.388.049-4.067-2.132-10.174 2.447-20.29 10.03-1.975 1.48-4.017 3.012-6.262 4.654-10.796 7.913-15.601 6.623-22.251 4.837-3.122-.839-6.663-1.79-11.743-1.954-1.362-.043-2.003.431-2.365.791-2.508 2.488-2.313 10.582-2.14 17.722.233 9.674.475 19.678-4.617 24.358-1.828 1.681-4.171 2.529-6.975 2.529Zm22.414-119.677Zm-.958-.172Z"/><path fill="#6D184E" d="M182.84 107.639c-.35-.056-.703-.113-1.063-.168.36.055.713.112 1.063.168Zm-42.817-31.503Zm2.082 2.046Zm54.96 38.929c0-.024.004-.048.005-.072-.001.024-.005.048-.005.072Zm.007-1.361c-.001-.017-.005-.034-.005-.051 0 .017.004.034.005.051Zm-4.307-5.644-.108-.05.108.05Zm-2.697-.981c-.081-.022-.161-.046-.242-.069.081.023.161.047.242.069Zm1.434.465-.183-.065.183.065Zm-4.763-1.26-.386-.077.386.077Zm-47.482-32.792Zm57.605 43.08Zm-55.655-41.391Zm-4.909-3.107Zm-1.554-.144.129-.004-.129.004Zm.44-.003-.179-.003h.005l.079.002.095.001Zm-.183-.003h.004-.004Zm61.687 45.455.011-.047-.011.047Zm-58.264-44.43Zm-.708-.373Zm-.859-.348-.135-.042.135.042Zm60.131 43.573Z"/><path fill="#D32B9A" d="M130.888 174.566c-4.145 0-6.912-.766-8.441-2.337-2.351-2.418-2.112-7.26-1.836-12.867.054-1.091.11-2.209.148-3.345.123-3.684-.774-7.585-2.674-11.595a13.694 13.694 0 0 0-8.672-7.304 13.736 13.736 0 0 0-3.722-.515c-2.597 0-5.157.741-7.357 2.178l-.107.072c-2.66 1.765-5.585 2.652-8.258 2.652-2.53 0-4.835-.797-6.466-2.397-3.732-3.66-3.056-10.41 1.809-18.052 7.072-11.112 1.32-18.527-4.77-26.376-5.877-7.576-12.538-16.163-9.938-30.684.112-.623.24-1.222.367-1.82l.014-.067a2.347 2.347 0 0 0-2.1-2.828 16.585 16.585 0 0 0-1.36-.056c-1.278 0-2.632.141-4.04.42-.215.044-.332.03-.328.04-.359-.32-.921-3.01 1.338-7.927 1.125-2.45 2.671-4.923 4.646-7.307-2.224 5.637-1.553 9.896 1.435 9.894.226 0 .465-.022.719-.073a18.245 18.245 0 0 1 3.573-.376c.408 0 .8.015 1.173.047-.137.645-.274 1.29-.394 1.961-5.498 30.697 27.57 36.521 15.036 56.214-9.454 14.853-2.695 24.077 6.675 24.075 3.053 0 6.385-.979 9.522-3.063.028-.019.058-.04.088-.057a11.033 11.033 0 0 1 6.061-1.804c2.65 0 5.263.936 7.322 2.651l-.035.368a3.867 3.867 0 0 0 .886 2.839 3.86 3.86 0 0 0 2.451 1.359c1.274 2.884 2.231 6.261 2.111 9.773-.359 10.62-2.186 19.571 9.464 20.826.041 1.574-.372 3.123-1.169 4.182-.637.847-1.423 1.27-2.406 1.291-.259.005-.514.008-.765.008Z"/><path fill="#B42583" d="M123.653 138.485a3.844 3.844 0 0 1-2.451-1.359 3.86 3.86 0 0 1-.885-2.838l.033-.369a11.21 11.21 0 0 1 2.965 3.829c.115.242.228.488.338.737Z"/><path fill="#6D184E" d="M130.9 176.914c-14.975 0-12.877-9.517-12.489-20.977.13-3.818-1.011-7.474-2.449-10.511-1.947-4.111-6.068-6.479-10.286-6.479-2.08 0-4.184.575-6.06 1.802l-.09.059c-3.137 2.083-6.467 3.062-9.52 3.062-9.37 0-16.129-9.224-6.675-24.075 12.533-19.694-20.536-25.517-15.039-56.215.12-.67.259-1.314.396-1.96-.375-.03-.765-.048-1.173-.048a18.37 18.37 0 0 0-3.573.376 3.61 3.61 0 0 1-.72.076c-5.406 0-3.229-13.957 9.985-24.775-1.838 2.498-3.182 4.959-4.066 7.202-1.975 2.384-3.521 4.856-4.646 7.306-2.26 4.917-1.697 7.606-1.338 7.928-.005-.01.113.003.327-.04a20.886 20.886 0 0 1 4.04-.421c.465 0 .917.02 1.36.057a2.346 2.346 0 0 1 2.1 2.827l-.013.067c-.127.599-.255 1.197-.367 1.82-2.6 14.522 4.061 23.11 9.938 30.685 6.09 7.85 11.841 15.264 4.77 26.375-4.865 7.643-5.542 14.392-1.81 18.053 1.632 1.6 3.936 2.396 6.467 2.396 2.673 0 5.598-.887 8.258-2.651l.107-.071a13.428 13.428 0 0 1 7.357-2.179c1.244 0 2.495.169 3.722.514a13.697 13.697 0 0 1 8.671 7.303c1.9 4.011 2.799 7.914 2.675 11.597-.039 1.136-.095 2.253-.148 3.345-.276 5.607-.516 10.449 1.836 12.867 1.529 1.571 4.296 2.337 8.442 2.337.249 0 .504-.003.766-.008.981-.021 1.767-.444 2.405-1.291.797-1.06 1.209-2.608 1.168-4.182.728.078 1.509.127 2.346.144.023 3.848-2.053 7.594-5.87 7.676-.274.006-.541.009-.804.009Z"/><path fill="#D32B9A" d="M199.294 118.362c.395-2.635.053-4.78-1.022-6.589-2.499-4.203-8.262-5.396-16.132-6.624-3.93-.612-4.987-4.103-6.261-9.78-.864-3.849-1.756-7.827-4.811-9.622-1-.584-2.141-.88-3.408-.88-.933 0-1.935.16-3.004.478-3.206.952-5.518 1.506-7.455 1.506-4.358 0-6.82-2.803-13.296-10.177-2.748-3.13-5.512-4.817-8.245-5.035 1.074-2.054 3.323-5.351 6.724-5.351 1.982 0 4.355 1.12 7.111 4.258 6.791 7.735 9.696 10.959 14.946 10.959 2.189 0 4.784-.56 8.237-1.588.879-.261 1.652-.381 2.334-.381 5.247 0 5.19 7.163 7.026 12.995a3.86 3.86 0 0 0 .363 2.164l4.232 8.699a3.862 3.862 0 0 0 2.223 1.972c.415.142.843.214 1.269.214.582 0 1.159-.133 1.697-.394a3.854 3.854 0 0 0 1.971-2.223 3.846 3.846 0 0 0 .056-2.362c7.745 1.524 11.83 3.738 10.279 10.794a3.876 3.876 0 0 0-2.445 2.584 3.851 3.851 0 0 0 .007 2.188 21.165 21.165 0 0 1-2.396 2.195Z"/><path fill="#B42583" d="M190.126 105.579c-.427 0-.855-.07-1.27-.213a3.857 3.857 0 0 1-2.223-1.971l-4.232-8.698a3.854 3.854 0 0 1-.362-2.166c1.119 3.553 2.94 6.614 7.092 7.262 1.693.264 3.269.524 4.718.809.229.77.21 1.588-.057 2.362a3.844 3.844 0 0 1-1.971 2.223 3.868 3.868 0 0 1-1.695.392Zm11.565 10.588a3.855 3.855 0 0 1-.008-2.189 3.878 3.878 0 0 1 2.445-2.584c-.192.874-.47 1.819-.839 2.848a20.781 20.781 0 0 1-1.598 1.925Z"/><path fill="#6D184E" d="M196.47 120.254v-.002c.082-.283.154-.559.218-.825l.011-.048c.062-.259.116-.513.162-.761l.014-.062c.044-.244.082-.479.113-.71l.01-.07.039-.338a12.665 12.665 0 0 0 .028-.326l.005-.072c.014-.215.022-.424.023-.628v-.063c-.001-.104-.001-.204-.006-.303a9.327 9.327 0 0 0-.014-.296 8.035 8.035 0 0 0-.068-.608c-.001-.006-.003-.012-.003-.019-.003-.009-.004-.02-.006-.031-.016-.096-.031-.19-.05-.282a7.056 7.056 0 0 0-.063-.277v-.003a5.716 5.716 0 0 0-.909-1.971c-.535-.742-1.255-1.364-2.146-1.896a7.063 7.063 0 0 0-.194-.111 7.038 7.038 0 0 0-.371-.202c-.123-.065-.247-.124-.376-.186l-.123-.058-.109-.05c-.161-.074-.329-.144-.499-.215-.05-.019-.097-.039-.147-.06-.084-.031-.167-.064-.251-.097l-.256-.094a20.67 20.67 0 0 0-.697-.239l-.213-.067c-.173-.053-.347-.107-.525-.159-.081-.021-.161-.047-.243-.069l-.265-.072c-.088-.025-.179-.048-.268-.072l-.272-.071-.541-.133-.308-.071-.544-.122-.06-.013-.284-.059-.543-.113-.386-.075a22.426 22.426 0 0 0-.54-.104l-.21-.039c-.071-.013-.143-.025-.214-.04-.175-.031-.353-.064-.533-.095-.11-.021-.222-.039-.333-.058-.055-.008-.11-.019-.163-.027a58.297 58.297 0 0 1-.498-.086c-.207-.033-.419-.069-.631-.104l-.39-.063c-.35-.056-.703-.113-1.063-.168-10.969-1.71-5.674-20.258-14.12-20.258-.682 0-1.455.12-2.332.383-3.456 1.026-6.049 1.587-8.238 1.587-5.248 0-8.156-3.224-14.948-10.959-.012-.014-.023-.028-.036-.04a21.59 21.59 0 0 0-.737-.793l-.159-.165a18.03 18.03 0 0 0-.865-.815 14.62 14.62 0 0 0-.637-.532l-.116-.092c-.111-.087-.224-.168-.334-.248a19.596 19.596 0 0 0-.33-.228l-.185-.119a11.593 11.593 0 0 0-.629-.373c-.049-.026-.094-.046-.141-.071-.087-.044-.17-.086-.255-.126a7.802 7.802 0 0 0-.251-.113c-.064-.028-.131-.058-.196-.083a6.677 6.677 0 0 0-.413-.15l-.135-.043a3.5 3.5 0 0 0-.111-.031l-.11-.03c-.067-.019-.135-.034-.204-.052a6.365 6.365 0 0 0-.199-.04 5.482 5.482 0 0 0-.667-.091 4.025 4.025 0 0 0-.245-.015l-.096-.003H135c-.042 0-.085 0-.126.002l-.13.004c.064-.254.126-.511.199-.764.052-.138.291-.758.718-1.574 2.732.218 5.495 1.905 8.243 5.036 6.477 7.374 8.939 10.177 13.296 10.177 1.938 0 4.249-.554 7.457-1.506 1.067-.319 2.07-.478 3.002-.478 1.268 0 2.409.296 3.407.88 3.056 1.795 3.948 5.773 4.813 9.62 1.273 5.679 2.331 9.17 6.26 9.782 7.87 1.228 13.634 2.42 16.133 6.623 1.075 1.809 1.415 3.955 1.023 6.59a22.724 22.724 0 0 1-2.825 1.891Zm.218-.827Zm.173-.809Zm.232-2.206Zm-.023.628Zm-.003-1.341Zm-.062-.557-.003-.018.003.018Z"/><path fill="#6D184E" d="M196.997 117.775c.014-.113.028-.225.039-.337-.011.112-.025.224-.039.337Zm.039-.337Zm-.04-2.347Zm-.051-.282Zm-4.289-4.753Zm1.173.607c-.065-.038-.127-.075-.193-.112.066.037.128.074.193.112Zm-.193-.112Zm-.373-.202Zm-.376-.184Zm3.584 10.087Zm.404-1.697Zm-.177.826Zm-59.231-44.872-.197-.084.197.084Zm-1.368-.431Zm.622.155Zm-.112-.033-.11-.03.11.03Zm2.316 1.111-.183-.119.183.12Zm-.813-.494c-.048-.025-.095-.045-.141-.07.046.025.093.045.141.07Zm53.896 34.966Zm-.251-.099-.256-.094.256.094Zm-52.049-33.805-.116-.093c.038.03.077.064.116.093Zm57.174 38.652Zm-.908-1.971c-.535-.744-1.255-1.364-2.146-1.897.891.533 1.611 1.153 2.146 1.897Zm-54.606-35.17c-.054-.056-.106-.111-.16-.165.054.054.106.11.16.165Zm-5.937-3.403Zm61.662 42.362c-.002-.103-.002-.204-.006-.304.004.1.004.201.006.304Zm-.006-.304c-.003-.099-.01-.198-.016-.295.008.097.013.196.016.295Zm-8.916-7.407-.546-.124.546.124Zm.848.204Zm-48.535-32.309Zm50.108 32.749Zm.729.242Zm-1.496-.467c-.087-.024-.175-.05-.265-.074.09.024.178.05.265.074Zm-.265-.074Zm-2.276-.542-.544-.112.544.112Zm-2.923-.55-.498-.085.498.085Zm-1.129-.188Zm2.157.37c-.176-.031-.353-.065-.535-.096.182.031.359.065.535.096Zm.963.181c-.179-.034-.358-.07-.54-.104.182.034.361.07.54.104Z"/><path fill="#D32B9A" d="M163.396 223.13c-.365 0-.748-.022-1.15-.066-1.278-.139-2.446-.382-3.512-.733 3.89-.309 8.233-2.63 8.051-11.518-.315-15.292-9.312-38.469 17.897-38.469 1.122 0 2.307.039 3.556.12l.323.019-.002.002c9.745.615 13.752 3.224 18.231 3.224 1.859 0 3.799-.449 6.264-1.679-.757.563-1.535 1.138-2.338 1.726-5.456 3.996-8.812 5.24-11.948 5.24-2.028 0-3.963-.521-6.312-1.151-3.202-.86-7.187-1.931-12.808-2.113-.114-.002-.227-.005-.341-.005-2.199 0-4.042.726-5.483 2.156-3.947 3.913-3.743 12.296-3.529 21.17.2 8.225.426 17.547-3.099 20.787-.943.865-2.192 1.29-3.8 1.29Zm66.864-61.194c5.809-4.267 10.191-7.096 13.873-7.566-.543 3.229-1.243 5.588-1.977 6.296-1.414-.728-2.839-1.067-4.321-1.067-2.336 0-4.81.844-7.575 2.337Z"/><path fill="#6D184E" d="M163.026 225.232c-5.677 0-10.208-3.687-10.208-3.687s2.244.825 4.936.825c.321 0 .65-.012.98-.039 1.066.35 2.236.594 3.513.733.402.044.786.065 1.15.065 1.608 0 2.858-.425 3.799-1.29 3.525-3.239 3.299-12.561 3.1-20.787-.215-8.874-.418-17.256 3.529-21.169 1.441-1.43 3.284-2.156 5.482-2.156.115 0 .228.002.342.005 5.621.182 9.607 1.252 12.808 2.112 2.35.631 4.285 1.151 6.311 1.151 3.137 0 6.494-1.243 11.949-5.239.802-.588 1.58-1.163 2.338-1.726 1.799-.896 3.874-2.207 6.401-4.059 4.098-3.001 7.66-5.729 10.805-8.036 2.765-1.493 5.238-2.337 7.575-2.337 1.482 0 2.907.34 4.321 1.068.734-.708 1.435-3.068 1.977-6.296.36-.047.713-.07 1.061-.07.449 0 .887.039 1.318.119-.745 4.623-2.038 8.663-4.276 8.662-.346 0-.714-.096-1.105-.302a6.964 6.964 0 0 0-3.289-.806c-5.823 0-13.327 6.583-25.738 15.676-5.973 4.376-9.819 5.714-13.32 5.714-5.074 0-9.422-2.812-18.463-3.249 0 0-.444-.235-1.102-.235-1.49 0-4.077 1.21-5.107 9.111-1.484 11.391 1.591 31.869-6.148 35.225a12.316 12.316 0 0 1-4.939 1.017Z"/><path fill="#0DF4FF" d="M103.968 69.123a2.838 2.838 0 0 0-2.338 3.263l1.58 9.544a2.84 2.84 0 0 0 5.601-.928l-1.579-9.542a2.836 2.836 0 0 0-3.264-2.337Z"/><path fill="#6D184E" d="M104.432 70.128a1.78 1.78 0 0 0-1.46.75c-.279.39-.39.865-.312 1.337l1.58 9.543a1.8 1.8 0 0 0 2.065 1.479 1.78 1.78 0 0 0 1.166-.727c.279-.39.389-.865.311-1.338l-1.579-9.543a1.798 1.798 0 0 0-1.771-1.501Zm1.576 15.22a3.889 3.889 0 0 1-3.827-3.249l-1.58-9.543a3.855 3.855 0 0 1 .674-2.893c.604-.843 1.5-1.4 2.522-1.571a3.89 3.89 0 0 1 4.466 3.196l1.579 9.543a3.868 3.868 0 0 1-.674 2.895 3.863 3.863 0 0 1-3.16 1.622Z"/><path fill="#0DF4FF" d="M138.928 51.399a2.838 2.838 0 0 0 .086 4.013l6.988 6.689a2.84 2.84 0 0 0 3.926-4.102l-6.988-6.687a2.836 2.836 0 0 0-4.012.087Z"/><path fill="#6D184E" d="M139.681 52.12a1.796 1.796 0 0 0 .056 2.538l6.987 6.689a1.797 1.797 0 0 0 3.035-1.337 1.794 1.794 0 0 0-.552-1.257l-6.989-6.688a1.767 1.767 0 0 0-1.28-.498c-.48.01-.926.206-1.257.554Zm8.283 11.81a3.861 3.861 0 0 1-2.683-1.076l-6.988-6.688a3.888 3.888 0 0 1-.121-5.49 3.865 3.865 0 0 1 2.72-1.197c1.03-.008 2.02.36 2.771 1.078l6.986 6.688a3.851 3.851 0 0 1 1.198 2.72 3.856 3.856 0 0 1-1.078 2.77 3.872 3.872 0 0 1-2.805 1.195Z"/><path fill="#0DF4FF" d="M185.642 87.963a2.838 2.838 0 0 0-1.31 3.794l4.232 8.698a2.84 2.84 0 1 0 5.105-2.483l-4.232-8.7a2.839 2.839 0 0 0-3.795-1.31Z"/><path fill="#6D184E" d="M185.642 87.962h.005-.005Zm1.241.757c-.268 0-.536.062-.784.181v.002a1.79 1.79 0 0 0-.83 2.397l4.233 8.699a1.796 1.796 0 0 0 3.228-1.571l-4.232-8.697a1.78 1.78 0 0 0-1.028-.911c-.192-.068-.39-.1-.587-.1Zm4.239 14.375a3.886 3.886 0 0 1-3.497-2.182l-4.232-8.699a3.862 3.862 0 0 1-.179-2.966 3.87 3.87 0 0 1 1.972-2.223 3.856 3.856 0 0 1 2.966-.179 3.847 3.847 0 0 1 2.222 1.972l4.233 8.698a3.887 3.887 0 0 1-1.792 5.189 3.851 3.851 0 0 1-1.693.39Z"/><path fill="#0DF4FF" d="M126.306 119.696a2.839 2.839 0 0 0-3.083 2.571l-.873 9.633a2.838 2.838 0 1 0 5.653.513l.874-9.633a2.838 2.838 0 0 0-2.571-3.084Z"/><path fill="#6D184E" d="M126.047 120.728a1.792 1.792 0 0 0-1.785 1.632l-.873 9.635c-.043.477.102.944.409 1.311a1.795 1.795 0 0 0 3.167-.988l.873-9.632a1.781 1.781 0 0 0-.409-1.313 1.782 1.782 0 0 0-1.382-.645Zm-.868 15.312c-.115 0-.235-.005-.354-.017a3.847 3.847 0 0 1-2.629-1.379 3.856 3.856 0 0 1-.886-2.837l.874-9.634a3.889 3.889 0 0 1 4.217-3.516 3.86 3.86 0 0 1 2.632 1.38c.664.797.978 1.804.884 2.838l-.874 9.632a3.887 3.887 0 0 1-3.864 3.533Z"/><path fill="#FFD00D" d="M108.927 106.531a2.84 2.84 0 0 0-3.914-.891l-8.19 5.147a2.838 2.838 0 0 0 3.021 4.807l8.19-5.147a2.84 2.84 0 0 0 .893-3.916Z"/><path fill="#6D184E" d="M106.521 106.249c-.327 0-.657.088-.953.273l-8.19 5.148a1.775 1.775 0 0 0-.793 1.121c-.107.468-.025.949.23 1.355a1.799 1.799 0 0 0 2.475.564l8.189-5.148a1.795 1.795 0 0 0-.958-3.313Zm-8.18 10.822a3.885 3.885 0 0 1-3.294-1.815 3.86 3.86 0 0 1-.499-2.929 3.858 3.858 0 0 1 1.72-2.424l8.19-5.147a3.888 3.888 0 0 1 5.353 1.22 3.887 3.887 0 0 1-1.221 5.352l-8.189 5.15a3.863 3.863 0 0 1-2.06.593Z"/><path fill="#0DF4FF" d="M181.991 158.897a2.839 2.839 0 0 0-3.914-.892l-8.19 5.147a2.84 2.84 0 0 0 3.022 4.808l8.188-5.149a2.84 2.84 0 0 0 .894-3.914Z"/><path fill="#6D184E" d="M179.582 158.612c-.334 0-.661.095-.951.277l-8.19 5.147a1.792 1.792 0 0 0-.564 2.474c.255.406.654.69 1.121.796.466.107.946.025 1.354-.23l8.189-5.147a1.8 1.8 0 0 0 .566-2.476 1.782 1.782 0 0 0-1.122-.794 1.781 1.781 0 0 0-.403-.047Zm-8.178 10.827c-.29 0-.58-.031-.87-.098a3.853 3.853 0 0 1-2.424-1.719 3.86 3.86 0 0 1-.499-2.93 3.856 3.856 0 0 1 1.72-2.423l8.189-5.147a3.845 3.845 0 0 1 2.929-.498 3.858 3.858 0 0 1 2.425 1.719 3.889 3.889 0 0 1-1.222 5.353l-8.19 5.147a3.85 3.85 0 0 1-2.058.596Z"/><path fill="#FFD00D" d="M194.765 131.203a2.837 2.837 0 0 0-1.601 3.681l3.545 9.001a2.84 2.84 0 0 0 5.283-2.081l-3.545-9a2.84 2.84 0 0 0-3.682-1.601Z"/><path fill="#6D184E" d="M195.147 132.174a1.79 1.79 0 0 0-.988.955c-.192.438-.2.926-.024 1.373l3.544 9a1.798 1.798 0 0 0 3.317.058c.191-.44.201-.928.025-1.374l-3.546-9a1.78 1.78 0 0 0-.953-.988 1.777 1.777 0 0 0-1.375-.024Zm4.208 14.552a3.89 3.89 0 0 1-3.617-2.459l-3.544-9a3.886 3.886 0 0 1 2.188-5.036 3.86 3.86 0 0 1 2.971.052 3.86 3.86 0 0 1 2.065 2.138l3.544 9a3.86 3.86 0 0 1-.052 2.971 3.857 3.857 0 0 1-2.136 2.065 3.897 3.897 0 0 1-1.419.269Z"/><path fill="#FFD00D" d="M168.696 64.433a2.838 2.838 0 0 0 1.939 3.515l9.295 2.685a2.839 2.839 0 0 0 1.574-5.454l-9.293-2.685a2.839 2.839 0 0 0-3.515 1.94Z"/><path fill="#6D184E" d="M169.698 64.725a1.796 1.796 0 0 0 1.227 2.223l9.292 2.683a1.798 1.798 0 0 0 2.224-1.225 1.794 1.794 0 0 0-1.226-2.224L171.92 63.5a1.796 1.796 0 0 0-2.222 1.226Zm11.016 7.064c-.356 0-.717-.049-1.075-.152l-9.293-2.685a3.886 3.886 0 0 1-2.654-4.806 3.89 3.89 0 0 1 4.807-2.654l9.295 2.685a3.86 3.86 0 0 1 2.322 1.855c.5.907.618 1.956.33 2.953a3.889 3.889 0 0 1-3.732 2.804Z"/><path fill="#0DF4FF" d="M203.679 111.785a2.839 2.839 0 0 0 1.939 3.516l9.292 2.684a2.838 2.838 0 1 0 1.576-5.455l-9.292-2.684a2.837 2.837 0 0 0-3.515 1.939Z"/><path fill="#6D184E" d="M204.682 112.075a1.796 1.796 0 0 0 1.225 2.223l9.293 2.684a1.794 1.794 0 0 0 .997-3.449l-9.293-2.684a1.796 1.796 0 0 0-2.222 1.226Zm11.014 7.066c-.356 0-.717-.049-1.076-.152l-9.293-2.686a3.887 3.887 0 0 1-2.652-4.807 3.89 3.89 0 0 1 4.807-2.653l9.293 2.684a3.89 3.89 0 0 1 2.654 4.808 3.892 3.892 0 0 1-3.733 2.806Z"/><path fill="#FFD52B" d="M221.98 158.542a2.84 2.84 0 0 0 4.012.157l7.101-6.567a2.84 2.84 0 0 0-3.855-4.169l-7.102 6.568a2.84 2.84 0 0 0-.156 4.011Z"/><path fill="#6D184E" d="M231.164 148.252a1.78 1.78 0 0 0-1.217.477l-7.101 6.567a1.796 1.796 0 0 0 2.438 2.637l7.101-6.567a1.798 1.798 0 0 0 .1-2.537 1.774 1.774 0 0 0-1.248-.575c-.025-.002-.049-.002-.073-.002Zm-7.098 12.243a3.867 3.867 0 0 1-2.851-1.245 3.888 3.888 0 0 1 .213-5.486l7.102-6.568a3.849 3.849 0 0 1 2.787-1.028 3.851 3.851 0 0 1 2.699 1.243 3.89 3.89 0 0 1-.213 5.487l-7.102 6.567a3.872 3.872 0 0 1-2.635 1.03Z"/><path fill="#FFD52B" d="M202.95 91.673a2.84 2.84 0 0 0 3.213 2.408l9.575-1.371a2.838 2.838 0 1 0-.806-5.62l-9.575 1.37a2.838 2.838 0 0 0-2.407 3.213Z"/><path fill="#6D184E" d="M215.339 88.103c-.086 0-.172.007-.259.02l-9.575 1.372a1.796 1.796 0 0 0-.822 3.212c.383.288.856.409 1.331.34l9.576-1.371a1.797 1.797 0 0 0 .821-3.214 1.787 1.787 0 0 0-1.072-.359Zm-9.588 7.05a3.856 3.856 0 0 1-2.32-.775 3.857 3.857 0 0 1-1.515-2.558 3.888 3.888 0 0 1 3.293-4.393l9.575-1.372a3.866 3.866 0 0 1 2.879.737 3.885 3.885 0 0 1-1.777 6.95l-9.576 1.371c-.187.027-.374.04-.559.04Z"/><path fill="#FFD52B" d="M140.769 146.002a2.84 2.84 0 0 0 4.015.068l6.951-6.726a2.837 2.837 0 1 0-3.946-4.08l-6.954 6.724a2.84 2.84 0 0 0-.066 4.014Z"/><path fill="#6D184E" d="M141.519 145.278a1.797 1.797 0 0 0 2.538.041l6.953-6.724a1.798 1.798 0 0 0 .044-2.538 1.793 1.793 0 0 0-1.262-.548 1.719 1.719 0 0 0-1.277.505l-6.953 6.724a1.797 1.797 0 0 0-.043 2.54Zm1.292 2.634-.067-.001a3.855 3.855 0 0 1-2.726-1.183 3.886 3.886 0 0 1 .093-5.49l6.952-6.725c.746-.72 1.721-1.125 2.765-1.09a3.855 3.855 0 0 1 2.726 1.183 3.888 3.888 0 0 1-.092 5.489l-6.954 6.724a3.852 3.852 0 0 1-2.697 1.093Z"/><path fill="#FFD52B" d="M117.516 56.809a2.837 2.837 0 0 0 .697-3.953l-5.547-7.924a2.84 2.84 0 0 0-3.955-.697 2.837 2.837 0 0 0-.696 3.953l5.547 7.924a2.839 2.839 0 0 0 3.954.697Z"/><path fill="#6D184E" d="M110.336 44.765c-.364 0-.72.11-1.025.325a1.786 1.786 0 0 0-.739 1.159c-.083.471.023.949.298 1.34l5.548 7.924c.275.392.686.654 1.159.738a1.78 1.78 0 0 0 1.34-.297h.001a1.78 1.78 0 0 0 .738-1.159 1.781 1.781 0 0 0-.297-1.34l-5.548-7.925a1.778 1.778 0 0 0-1.475-.765Zm5.561 13.6a3.76 3.76 0 0 1-.683-.059 3.86 3.86 0 0 1-2.506-1.595l-5.548-7.925a3.856 3.856 0 0 1-.643-2.9 3.848 3.848 0 0 1 1.597-2.506 3.853 3.853 0 0 1 2.901-.644c1.02.181 1.91.748 2.505 1.597l5.548 7.924c.595.85.824 1.88.644 2.902a3.852 3.852 0 0 1-1.597 2.504 3.858 3.858 0 0 1-2.218.703Z"/><path fill="#F2A40C" d="M151.274 279.705c-50.872 0-92.112-4.815-92.112-10.755 0-5.939 41.24-10.755 92.112-10.755 50.87 0 92.11 4.816 92.11 10.755 0 5.94-41.24 10.755-92.11 10.755Z"/></svg>