<svg xmlns="http://www.w3.org/2000/svg" width="227" height="229" fill="none"><path fill="#F9A332" d="M192.212 102.972s16.613 21.857-26.173 50.461C123.251 182.036 63.6 191.5 51.73 160.697c-11.87-30.803-.788-21.682 44.82-26.955 45.607-5.272 75.973-53.112 83.311-47.898 7.334 5.216 12.351 17.128 12.351 17.128Z"/><path fill="#BF6700" d="M88.565 175.757c-12.876 0-23.796-3.064-30.764-9.843 3.083-1.469 5.523-2.96 7.563-4.204 2.324-1.419 4.207-2.569 5.376-2.569.126 0 .243.013.351.041.594.151 1.22.8 1.912 1.984 2.004 3.425 4.74 5.298 7.733 5.298.12 0 .24-.003.362-.009 3.167-.155 6.089-2.476 7.815-6.208 1.024-2.213 2.36-3.558 4.086-4.11.64-.205 1.354-.307 2.138-.307 2.88 0 6.728 1.378 11.477 4.118l.053.03c1.975 1.183 4.19 1.901 6.807 1.969.214.007.425.009.634.009 7.238 0 10.653-3.339 12.717-5.357.537-.526 1.35-1.319 1.624-1.342.003 0 .243.036.788.585-2.43 2.871-7.418 8.436-15.039 8.436-3.27 0-7.024-1.026-11.268-3.727-1.865-1.187-3.774-1.682-5.499-1.682-4.926 0-8.353 4.045-4.948 7.584 1.4 1.455 4.212 1.96 7.445 1.96 5.226 0 11.548-1.321 14.771-2.092 6.469-1.594 13.064-3.712 19.618-6.297 1.198.538 2.424.822 3.582.822 1.146 0 2.226-.278 3.146-.865.785-.5 2.038-1.63 2.359-3.857a168.362 168.362 0 0 0 22.634-12.69c16.696-11.163 24.347-21.295 27.469-29.505a23.202 23.202 0 0 1-.34 4.211c-.421 2.462-1.237 4.955-2.434 7.469-4.161 7.027-11.679 15.102-24.695 23.804-24.333 16.267-54.122 26.344-77.473 26.344Zm53.478-26.536a28.64 28.64 0 0 0-.239-.527 18.395 18.395 0 0 1-.733-1.819h.111c8.32 0 11.487-4.151 15.323-9.18 1.356-1.778 2.757-3.616 4.555-5.552 3.244-3.495 8.21-3.707 13.013-3.913 3.159-.135 6.187-.265 8.49-1.413-5.597 5.607-12.965-.004-17.374 7.037-5.014 8.009-9.472 13.63-18.943 14.754-1.54.183-2.933.385-4.203.613Zm44.375-28.834c.023-.431.023-.884.003-1.357-.168-3.813-.188-6.415.222-7.602.222-.642.509-.811 2.026-1.478.998-.439 2.277-1.002 3.873-2.007.23.707.442 1.506.611 2.394-6.258 1.516-3.818 3.057-6.735 10.05Z"/><path fill="#6D184E" d="M178.525 87.35c-.432 0-1.507.25-3.856 1.913-2.737 1.939-6.297 5.14-10.421 8.847-15.105 13.579-37.933 34.102-67.482 37.517-10.805 1.25-19.65 1.693-26.758 2.051-10.971.551-18.22.915-20.124 3.879-1.822 2.834.122 9.427 3.6 18.453 2.86 7.419 8.8 12.618 17.657 15.455 22.934 7.344 62.406-2.586 93.859-23.613 16.546-11.061 26.286-22.719 28.168-33.713 1.475-8.614-2.292-13.803-2.453-14.019a1.943 1.943 0 0 1-.233-.405c-.065-.156-4.913-11.492-11.704-16.32-.003 0-.071-.046-.253-.046Zm-89.926 94.345c-6.898 0-13.149-.87-18.595-2.614-9.997-3.201-16.733-9.155-20.025-17.696-4.21-10.926-5.976-17.651-3.25-21.892 2.95-4.593 10.105-4.952 23.092-5.604 7.054-.355 15.832-.795 26.517-2.031 28.366-3.279 50.658-23.32 65.41-36.58 9.865-8.869 15.297-13.755 19.196-10.984 7.241 5.149 12.189 16.07 12.914 17.739.833 1.207 4.588 7.278 3.04 16.606-2.032 12.268-12.066 24.506-29.819 36.375-15.446 10.326-33.555 18.456-50.993 22.894-9.913 2.521-19.17 3.787-27.487 3.787Z"/><path fill="#48C75A" d="M43.874 141.301s-10.864-1.686-11.839 5.76c-.975 7.447 11.003 4.497 10.864 10.258-.14 5.761-.279 13.348 11.979 8.15 12.257-5.199 15.6-11.788 19.5-5.121 3.9 6.666 10.167 5.542 13.092-.781 2.925-6.323 8.675-7.511 19.938-1.015 6.026 3.475 9.296-1.477 13.387-6.429 3.554-4.302 7.728-8.605 14.868-7.38 15.355 2.635 16.018-4.847 24.234-13.699 8.218-8.853 25.49.843 24.933-11.945-.557-12.786.765-7.973 8.391-13.558 7.626-5.586 7.521-18.653-7.417-17.493-14.938 1.158-52.091 55.22-141.93 53.253Z"/><path fill="#B6E9BD" d="M184.957 108.402c.564-2.362 3.254-3.8 8.838-8.183.986-.775 1.973-2.06 2.802-3.353-.204 2.682-1.79 5.526-4.312 7.375-2.094 1.531-3.643 2.213-4.889 2.76-1.027.451-1.825.875-2.439 1.401Zm-39.16 34.651c4.919-2.69 7.262-8.384 12.717-14.683 6.874-7.938 19.673-2.865 24.632-7.302-.147.877-.446 1.56-.907 2.066-1.446 1.589-4.776 1.732-8.301 1.882-5.189.222-11.071.475-15.204 4.928-1.903 2.05-3.418 4.037-4.755 5.789-2.72 3.566-4.713 6.181-8.182 7.32Z"/><path fill="#539256" d="M48.136 165.599c-.865 0-1.557-.173-2.062-.522-1.74-1.196-1.652-4.812-1.582-7.719.095-3.886-3.57-5.036-6.246-5.875-3.537-1.11-4.946-1.802-4.63-4.211.168-1.288.715-2.267 1.673-2.994 1.266-.96 3.104-1.357 4.779-1.484 4.746 7.437 12 11.571 20.474 11.571 1.074 0 2.17-.067 3.28-.201 10.5-1.449 21.059-3.709 31.599-6.759.41.565.814 1.125 1.212 1.68 1.07 1.485 2.107 2.926 3.155 4.273-1.695-.497-3.245-.744-4.66-.744-1.113 0-2.143.153-3.092.458-2.587.828-4.609 2.784-6.01 5.815-1.218 2.631-3.117 4.259-5.08 4.355-.057.003-.112.003-.168.003-1.839 0-3.616-1.301-5.028-3.714-1.163-1.99-2.396-3.092-3.88-3.468a4.528 4.528 0 0 0-1.129-.14c-2.054 0-4.21 1.315-7.027 3.035-2.434 1.485-5.462 3.335-9.455 5.028-2.526 1.072-4.594 1.613-6.123 1.613Zm93.195-21.914c-.351 0-.714-.008-1.09-.027-.732-3.978-.606-8.676.552-13.585 13.702-6.393 26.487-13.896 38.171-22.412 5.673-4.279 8.983-10.073 9.736-16.598l.284-.058c.817 4.885-.006 11.262-6.523 17.276-13.093 12.083-27.857 15.315-34.543 22.201-4.028 4.149-4.466 9.468-4.177 13.043-.737.105-1.536.16-2.41.16Z"/><path fill="#6D184E" d="M41.405 142.744c-1.95 0-4.5.308-6.116 1.535-.958.727-1.505 1.705-1.674 2.994-.315 2.409 1.094 3.1 4.631 4.21 2.676.839 6.34 1.989 6.246 5.875-.07 2.907-.157 6.524 1.582 7.72 1.4.963 4.23.586 8.185-1.092 3.993-1.693 7.021-3.542 9.455-5.028 3.335-2.036 5.746-3.506 8.156-2.895 1.484.376 2.716 1.479 3.88 3.468 1.454 2.485 3.297 3.793 5.195 3.712 1.964-.096 3.863-1.724 5.08-4.356 1.402-3.031 3.424-4.987 6.01-5.815 3.928-1.26 9.216.077 16.164 4.084 4.187 2.415 6.448-.015 10.412-4.887 3.84-4.724 8.619-10.604 17.319-9.111 10.953 1.881 13.473-1.425 18.049-7.424 1.337-1.753 2.852-3.74 4.755-5.789 4.133-4.453 10.016-4.706 15.204-4.928 3.525-.151 6.855-.294 8.3-1.883.752-.827 1.079-2.124.998-3.963-.392-9.009.074-10.374 4.16-12.169 1.245-.549 2.797-1.23 4.889-2.762 3.452-2.53 5.151-6.922 3.95-10.218-1.182-3.244-4.842-4.798-10.309-4.37-3.66.283-9.646 4.757-17.226 10.421-10.774 8.053-25.531 19.083-45.863 27.967-24 10.488-50.584 15.492-78.998 14.869a1.782 1.782 0 0 1-.205-.018 15.61 15.61 0 0 0-2.23-.147Zm6.715 26.064c-1.528 0-2.804-.358-3.842-1.073-3.172-2.183-3.061-6.769-2.972-10.455.03-1.247-.975-1.775-4.007-2.726-3.004-.942-7.543-2.367-6.844-7.703.283-2.161 1.268-3.894 2.927-5.149 3.73-2.822 9.7-2.134 10.622-2.007 64.475 1.382 100.98-25.901 122.799-42.205 8.613-6.437 14.304-10.69 18.878-11.046 9.821-.76 12.745 4.27 13.547 6.468 1.703 4.672-.43 10.531-5.07 13.929-2.375 1.739-4.174 2.53-5.488 3.109-1.517.667-1.804.836-2.026 1.479-.41 1.186-.389 3.787-.222 7.601.118 2.736-.481 4.79-1.834 6.278-2.338 2.572-6.311 2.742-10.514 2.922-4.803.206-9.77.418-13.012 3.913-1.8 1.936-3.201 3.774-4.557 5.552-4.618 6.055-8.266 10.837-21.111 8.634-6.874-1.18-10.659 3.476-14.32 7.979-3.626 4.461-7.738 9.516-14.458 5.64-6.045-3.487-10.626-4.768-13.616-3.811-1.725.552-3.062 1.897-4.086 4.11-1.726 3.732-4.648 6.053-7.816 6.208-3.133.157-6.009-1.726-8.094-5.289-.692-1.184-1.318-1.834-1.912-1.984-1.122-.284-3.154.956-5.727 2.528-2.523 1.54-5.662 3.457-9.87 5.241-2.921 1.239-5.366 1.857-7.375 1.857Z"/><path fill="#DB2839" d="M160.202 61.489c-1.937.781-3.602 2.015-4.969 3.594-8.318 5.777-26.439 17.41-49.429 26.576-22.906 9.367-43.979 13.56-53.951 15.169-2.07-.19-4.118.076-6.055.858-8.836 3.568-12.013 16.509-7.095 28.903 4.918 12.394 14.686 17.218 24.904 15.981 22.74-3.136 43.063-9.741 59.685-16.842 16.887-6.431 36.116-15.797 54.719-29.355 8.243-6.217 12.013-16.508 7.095-28.903-4.917-12.394-16.068-19.548-24.904-15.981Z"/><path fill="#A92142" d="M60.48 151.155c-9.122 0-16.423-5.399-20.297-15.163a33.189 33.189 0 0 1-.798-2.243c.607-.212 1.23-.423 1.865-.625-.45 2.073-.526 4.204.622 5.965 1.142 1.752 3.207 2.746 6.311 3.041.455.043.899.063 1.332.063 6.444 0 10.59-4.556 13.67-7.94 1.886-2.071 3.668-4.029 5.129-4.029h.032c.854.017 1.865.714 3.006 2.07 4.042 4.811 9.33 7.428 14.967 7.427a17.718 17.718 0 0 0 2.785-.217c1.562 1.703 2.966 3.433 4.272 5.145-10.002 2.837-20.013 4.953-29.959 6.325-.998.121-1.978.181-2.938.181Zm7.325-16.957c-.248 0-.467.132-.67.429-.805 1.177-2.524 2.823-4.334 4.403-1.191 1.039-.836 2.965.63 3.546 2.621 1.039 5.415 1.541 8.282 1.541a25.47 25.47 0 0 0 3.07-.188l.094-.013c1.99-.275 2.455-2.962.687-3.921-4.506-2.444-6.508-5.797-7.76-5.797ZM142 125.949c1.913-5.459 5.119-10.997 9.849-15.942.728.061 1.466.097 2.207.097.646 0 1.293-.028 1.933-.093a80.932 80.932 0 0 0-4.328 5.477c-1.059 1.464.095 3.315 1.637 3.315.291 0 .598-.067.906-.216 4.414-2.13 8.898-4.46 13.415-7.007-8.087 5.255-16.646 10.055-25.619 14.369Zm24.341-25.61c.095-.333.176-.661.247-.98 7.539-3.99 13.826-6.217 18.818-7.521-.067.397-.146.79-.236 1.18-7.109.435-13.453 3.41-18.829 7.321Z"/><path fill="#6D184E" d="M50.577 108.377c-1.462 0-2.867.268-4.188.802-3.785 1.529-6.537 5.093-7.75 10.035-1.261 5.135-.713 11.093 1.542 16.777 4.283 10.791 12.75 16.251 23.235 14.983 19.69-2.717 39.634-8.346 59.253-16.727a.503.503 0 0 1 .058-.024c19.933-7.589 38.218-17.399 54.349-29.153 8.436-6.364 10.83-16.211 6.548-27.003-4.582-11.55-14.826-18.32-22.831-15.084l-.592-1.494.592 1.494c-1.659.668-3.125 1.73-4.362 3.158-.088.1-.186.189-.296.266-8.727 6.06-26.794 17.596-49.745 26.747-22.859 9.348-43.825 13.575-54.287 15.262-.131.02-.265.025-.397.013-.38-.035-.756-.052-1.129-.052Zm9.965 45.988c-10.412 0-18.98-6.24-23.32-17.178-2.502-6.305-3.098-12.963-1.678-18.746 1.467-5.975 4.897-10.325 9.66-12.248 2.069-.836 4.284-1.165 6.587-.984 10.392-1.686 30.974-5.865 53.414-15.041 22.53-8.982 40.287-20.286 48.962-26.299 1.543-1.735 3.373-3.037 5.441-3.874 9.637-3.89 21.74 3.68 26.976 16.877 4.788 12.068 1.94 23.577-7.62 30.79-16.37 11.93-34.895 21.87-55.083 29.559-19.867 8.485-40.074 14.186-60.06 16.943-1.11.134-2.205.201-3.28.201Z"/><path fill="#FCAF15" d="M41.645 121.208s-10.725 4.356-13.371 11.803c-1.573 4.423 2.95 1.956 9.83-.512 4.701-1.687 10.504-3.374 16.215-2.86 5.215.468 7.214-1.109 8.666-2.686 2.464-2.678 3.35-5.358 15.709 1.983 19.64 11.663 21.45 31.053 34.821 31.404 5.355.141 8.431-1.601 10.518-3.341 3.123-2.607 4.026-5.213 7.031-1.506 5.015 6.182 14.52 5.058 9.297-6.113-5.223-11.171-1.914-35.76 21.764-49.39 23.678-13.629 36.352-10.678 37.467-12.645 1.115-1.968-4.179-12.085-21.032-12.365-16.853-.282-59.195 43.137-136.915 46.228Z"/><path fill="#D18126" d="M114.08 158.739c-.172 0-.345-.002-.523-.007-6.156-.162-9.59-4.932-14.344-11.537-1.928-2.678-4.06-5.641-6.649-8.608 3.338-1.261 6.282-3.533 8.46-6.609 2.06-2.909 3.844-4.021 6.049-4.021 2.136 0 4.667 1.046 8.223 2.516 2.247.927 4.794 1.98 7.759 2.944 1.931.627 3.826.935 5.635.935 3.216 0 6.164-.975 8.564-2.875a22.359 22.359 0 0 0-.874 1.865 17.44 17.44 0 0 1-8.449 2.137c-3.931 0-7.635-1.203-10.923-2.407-3.289-1.204-6.161-2.407-8.434-2.407-1.266 0-2.345.373-3.206 1.327-3.072 3.403-6.103 6.801-7.955 7.849 5.5 7.553 8.86 13.907 16.436 14.105.185.005.366.008.546.008 5.113 0 8.012-1.941 9.967-3.882 1.953-1.941 2.962-3.881 4.293-3.881.669 0 1.419.489 2.41 1.711 1.789 2.205 4.147 3.479 6.206 3.698.912 2.758.758 4.727-.029 5.973-1.556-.234-3.454-1.263-4.942-3.098-.878-1.083-2.088-2.337-3.667-2.429a3.685 3.685 0 0 0-.182-.005c-1.538 0-2.659 1.09-3.842 2.248-1.935 1.891-4.566 4.45-10.529 4.45Zm-84.379-24.968c.022-.066.046-.14.074-.219.965-2.715 3.195-5.012 5.506-6.784 1.45-.03 2.95-.145 4.437-.259.92-.07 1.788-.137 2.64-.183a3.83 3.83 0 0 1 .228-.007c.219 0 .357.021.436.04.078.55-.354 1.973-.71 3.088-2.92.82-5.619 1.845-7.943 2.729-1.63.619-3.573 1.357-4.668 1.595Z"/><path fill="#F8CE36" d="M54.514 129.653c8.534.693 8.28-4.194 11.485-5.265-6.067-1.373-4.45 4.562-11.485 5.265Zm-26.401 5.399c1.355 2.113 11.664-4.847 22.568-5.463-8.92-.547-17.951 4.058-22.568 5.463Z"/><path fill="#FED78A" d="M137.899 151.636c-.206 0-.416-.012-.63-.034a20.23 20.23 0 0 0-.894-2.222c-1.826-3.905-2.485-10.004.005-16.037.214-.117.43-.239.645-.366-.885 6.356-.253 12.494 1.896 17.089.21.45.397.887.557 1.309a4.634 4.634 0 0 1-1.579.261Z"/><path fill="#E8C093" d="M137.907 157.625c-.213 0-.436-.017-.666-.052.787-1.245.942-3.215.029-5.972.212.023.423.036.629.036a4.6 4.6 0 0 0 1.58-.263c1.117 2.909 1.085 5.11-.135 5.889-.38.241-.874.362-1.437.362Zm-1.528-24.283a22.19 22.19 0 0 1 .874-1.865l.01-.008a41.799 41.799 0 0 0-.238 1.509c-.215.126-.431.248-.646.364Z"/><path fill="#D18126" d="M142.742 116.668a24.294 24.294 0 0 0-.963-4.65c-.711-2.306-.298-2.823-.28-2.845.186-.216.682-.298 1.337-.298 1.253 0 3.09.298 4.465.521l.605.098a46.977 46.977 0 0 0-5.164 7.174Z"/><path fill="#6D184E" d="M67.297 122.585c2.48 0 6.11 1.344 12.207 4.965 9.728 5.777 15.262 13.467 19.71 19.646 4.753 6.604 8.187 11.374 14.343 11.537 6.335.153 9.062-2.498 11.052-4.444 1.228-1.202 2.392-2.333 4.025-2.243 1.578.092 2.789 1.347 3.666 2.428 2.293 2.827 5.553 3.738 7.044 2.788 1.398-.891 1.236-3.648-.423-7.195-3.035-6.493-3.044-16.064-.023-24.98 2.608-7.694 8.618-18.539 22.438-26.494 17.054-9.815 28.607-11.187 34.159-11.845.96-.114 2.022-.24 2.605-.374-.119-.55-.54-1.649-1.744-3.057-1.678-1.962-6.773-6.545-17.822-6.73-5.127-.1-13.234 4.447-24.465 10.722-23.783 13.282-59.698 33.343-112.068 35.494-1.549.681-10.063 4.663-12.226 10.75a7.422 7.422 0 0 0-.073.218c1.094-.237 3.037-.975 4.668-1.595 5.338-2.029 12.653-4.805 20.092-4.14 5.052.457 6.41-1.09 7.846-2.726 1.376-1.569 2.689-2.725 4.989-2.725Zm46.812 39.371c-.208 0-.421-.003-.635-.009-7.729-.202-11.951-6.069-16.84-12.862-4.496-6.246-9.592-13.326-18.747-18.763-4.98-2.957-8.368-4.438-10.357-4.527-1.286-.05-1.77.432-2.836 1.646-1.628 1.856-3.86 4.394-10.514 3.799-6.718-.605-13.636 2.026-18.687 3.945-4.45 1.692-6.903 2.624-8.398 1.141-1.25-1.242-.55-3.211-.32-3.858 2.854-8.034 13.811-12.563 14.275-12.751.17-.069.35-.108.533-.116 51.771-2.059 87.379-21.946 110.941-35.107 11.665-6.513 20.094-11.217 26.063-11.121 11.956.199 19.049 5.289 21.699 9.987.633 1.123 1.566 3.239.692 4.782-.725 1.28-2.191 1.453-5.111 1.8-5.344.634-16.461 1.954-32.95 11.446-21.934 12.624-26.405 35.985-21.112 47.306 3.512 7.513.64 10.396-.759 11.287-3.104 1.979-8.03.455-11.214-3.47-.968-1.193-1.378-1.253-1.382-1.254-.273.022-1.086.816-1.622 1.342-2.066 2.017-5.48 5.357-12.719 5.357Z"/><path fill="#F8CE36" d="M125.894 141.951s-4.861 9.119-12.046 8.008c-5.452-.843 3.657.23 6.023-6.427 2.733-7.695 7.43-3.689 6.023-1.581Z"/><path fill="#48C75A" d="M48.332 104.698s-19.221 1.054-21.52 11.803c-2.297 10.749 7.731 8.641 15.461 8.22 7.73-.422-7.312 14.543 6.06 15.807 5.589.529 9.316-2.699 12.357-5.928 4.234-4.493 7.135-8.987 11.878-3.346 8.147 9.695 20.892 8.642 27.16-.21 6.268-8.852 11.49-3.161 23.817.843 12.327 4.005 20.684-6.534 16.715-19.391-1.972-6.383 2.289-5.492 7.819-4.603 5.611.902 12.529 1.804 15.579-4.881 6.058-13.279-6.894-15.597 8.566-18.758 15.461-3.163 22.146-4.215 19.64-12.75-2.507-8.538-8.358-14.86-27.997-6.43-19.638 8.43-37.397 45.315-115.535 39.624Z"/><path fill="#539256" d="M45.244 130.752c.829-2.577 1.533-4.801.315-6.398-.633-.831-1.637-1.249-2.99-1.249a7.12 7.12 0 0 0-.383.009c-.886.049-1.812.119-2.709.189-1.615.123-3.314.253-4.888.253-.182 0-.362-.001-.54-.004 1.075-3.878 3.074-7.661-.498-7.661-.099 0-.202.001-.31.009-1.52.082-3.129.229-4.716.332.823-2.768 3.053-4.772 5.739-6.224a75.449 75.449 0 0 0 1.067 4.687c6.383 3.259 13.265 5.477 20.512 6.718-2.899 2.511-5.918 7.266-10.599 9.339Zm32.068-1.461c-1.801 0-3.626-.302-5.41-.923-.953-.736-1.91-1.169-2.884-1.311-1.956-1.108-3.816-2.642-5.482-4.625a5.088 5.088 0 0 0-.069-.08c2.275.174 4.58.261 6.908.261 7.11 0 14.452-.805 21.922-2.364a17.663 17.663 0 0 0-1.6 1.974c-3.241 4.577-8.212 7.068-13.385 7.068Zm42.345-5.364c-1.611 0-3.334-.275-5.143-.862-5.673-1.843-9.842-4.043-13.3-5.019 5.604-1.593 11.251-3.591 16.899-5.972l.07-.03.02-.008.05-.021.023-.009.051-.022.017-.008.069-.028.001-.001.075-.031c.001-.002.003-.002.004-.002l.067-.03c.003-.001.009-.002.013-.005l.062-.026.01-.004.07-.03.001-.001.149-.064.005-.001.068-.03.007-.003c.099-.042.198-.083.296-.127l.003-.001c.224-.097.447-.193.67-.291l.004-.001c.099-.042.197-.086.296-.129l.003-.003.295-.127.005-.004.292-.129.007-.003.066-.03.007-.002.218-.097.008-.005c.021-.009.042-.017.062-.027.003-.002.008-.003.011-.006l.069-.03h.001l.145-.065a.738.738 0 0 1 .07-.031l.014-.007.059-.025a4.171 4.171 0 0 0 .151-.07c.006-.003.014-.007.021-.008l.049-.023.021-.01.048-.021.023-.01.056-.025a.034.034 0 0 1 .012-.006l.069-.031c.006-.003.011-.006.017-.007.015-.009.034-.016.05-.023l.026-.013c.014-.005.026-.012.04-.018.012-.004.02-.009.031-.014l.037-.016.03-.014a.323.323 0 0 1 .034-.015c.021-.01.045-.022.066-.03l.028-.014c.014-.006.025-.012.039-.017a.315.315 0 0 1 .026-.013l.04-.018.024-.01c.016-.009.03-.015.045-.022l.004-.001c.056-.027.114-.052.171-.079l.007-.003.057-.026.001-.001c3.07-1.412 6.056-2.91 8.952-4.488 2.246 10.139-3.227 18.393-12.064 18.393Zm25.45-24.233c-1.1 0-2.216-.091-3.316-.224 5.265-3.5 10.131-7.3 14.531-11.376-.143 1.731-.619 3.74-1.694 6.096-1.999 4.38-5.657 5.504-9.521 5.504Zm23.487-25.37a79.019 79.019 0 0 0 6.324-10.323l-.356-.767c1.717-.347 3.294-.52 4.728-.52 1.356 0 2.585.155 3.681.468 1.831 7.045-3.05 8.761-14.377 11.142Z"/><path fill="#A4E3AD" d="M86.32 136.505h-.154c2.825-1.251 5.357-3.283 7.3-6.028 2.58-3.644 4.994-4.96 7.747-4.96.601 0 1.22.063 1.86.179-1.56.819-3.091 2.223-4.643 4.413-2.736 3.866-6.92 6.192-11.48 6.383-.21.009-.42.013-.63.013Zm43.348-5.393c6.209-2.889 8.594-10.795 6.746-20.29-.733-3.765.892-4.702 3.652-4.702.1 0 .201 0 .303.003a3.579 3.579 0 0 0-1.28.945c-1.436 1.671-.89 4.171-.354 5.906 1.838 5.95.854 11.768-2.567 15.185-1.763 1.762-3.982 2.756-6.5 2.953Zm24.505-24.226c-.345 0-.7-.009-1.06-.026 3.281-.491 6.269-2.078 8.098-6.088 6.421-14.071-7.305-16.528 9.078-19.879 11.249-2.3 18.111-3.548 20.448-7.034.164 1.446-.148 2.22-.441 2.709-1.601 2.688-7.682 3.927-16.886 5.803l-1.505.306c-5.25 1.074-7.593 2.101-8.643 3.79-.968 1.553-.555 3.186-.12 4.917.646 2.556 1.448 5.736-.933 10.955-1.6 3.507-4.415 4.547-8.036 4.547Z"/><path fill="#6D184E" d="M42.569 123.105c1.352 0 2.357.418 2.99 1.25 1.226 1.607.504 3.853-.332 6.453-.765 2.377-1.632 5.072-.692 6.514.569.872 1.895 1.411 3.945 1.605 5.636.532 9.207-3.389 12.357-6.849 2.4-2.637 4.66-5.142 7.572-5.069 1.834.036 3.591 1.085 5.373 3.206 3.576 4.253 8.252 6.485 13.167 6.277 4.56-.192 8.744-2.517 11.48-6.382 5.524-7.801 10.788-5.624 18.075-2.613 2.195.906 4.68 1.933 7.53 2.86 4.835 1.57 9.145.79 12.136-2.198 3.42-3.417 4.403-9.235 2.567-15.185-.537-1.735-1.083-4.234.355-5.907 1.703-1.982 4.952-1.456 8.715-.846 6.664 1.079 11.957 1.48 14.402-3.882 2.383-5.219 1.579-8.4.935-10.956-.437-1.729-.849-3.363.118-4.917 1.051-1.687 3.394-2.714 8.645-3.789l1.504-.306c9.204-1.876 15.285-3.114 16.887-5.803.4-.67.839-1.876.037-4.608-1.264-4.302-3.135-6.917-5.892-8.227-4.215-2.003-10.929-1.054-19.952 2.821-4.653 1.997-9.35 5.785-14.787 10.172-8.49 6.844-19.054 15.366-34.903 21.588-18.532 7.276-40.278 9.891-66.476 7.996-1.405.098-18.016 1.463-19.955 10.53-.524 2.454-.357 4.199.498 5.188 1.692 1.958 6.43 1.596 10.609 1.276.896-.069 1.822-.14 2.71-.189.13-.007.257-.01.382-.01Zm6.946 19.088c-.434 0-.878-.02-1.332-.063-3.105-.295-5.17-1.289-6.312-3.041-1.781-2.732-.615-6.359.323-9.274.368-1.145.914-2.843.828-3.455-.104-.025-.308-.054-.664-.033-.852.046-1.72.112-2.64.183-5.167.395-10.51.804-13.253-2.369-1.573-1.82-1.97-4.432-1.211-7.979 2.525-11.813 22.157-13.024 22.99-13.07a1.51 1.51 0 0 1 .202.003c58.203 4.236 81.936-14.906 99.266-28.882 5.621-4.533 10.475-8.449 15.531-10.618 10.035-4.308 17.415-5.215 22.558-2.771 3.638 1.73 6.05 4.977 7.59 10.222.871 2.965.752 5.313-.361 7.18-2.327 3.902-8.597 5.18-18.987 7.297l-1.502.307c-3.892.796-6.104 1.585-6.579 2.347-.229.367-.045 1.156.272 2.413.687 2.724 1.725 6.84-1.128 13.095-3.654 8.004-12.169 6.624-17.804 5.711-2.095-.338-5.261-.854-5.801-.223-.019.021-.433.54.279 2.845 2.226 7.208.967 14.096-3.368 18.427-3.82 3.819-9.418 4.901-15.357 2.972-2.966-.963-5.512-2.016-7.759-2.944-7.226-2.987-10.216-4.223-14.272 1.505-3.312 4.679-8.394 7.494-13.942 7.727-5.922.247-11.506-2.384-15.731-7.411-1.14-1.356-2.152-2.052-3.006-2.07h-.032c-1.461 0-3.242 1.958-5.129 4.029-3.08 3.384-7.226 7.94-13.67 7.94Z"/><path fill="#F9A332" d="M118.114 112.075c25.776-10.868 46.326-27.508 56.804-48.074-11.644-25.395-36.931-43.122-66.378-43.6-40.91-.665-74.944 32.489-75.657 73.758a75.902 75.902 0 0 0 2.448 20.536c23.186 11.841 52.987 9.939 82.783-2.62Z"/><path fill="#FFF6AF" d="M118.679 21.26h-.001.001Zm-.077-.011c-.001 0-.001-.002-.003-.002.002 0 .002.002.003.002Zm-.04-.006-.001-.002.001.002Zm-.037-.006-.006-.002a.012.012 0 0 0 .006.002Zm-.041-.007h-.002.002Zm-.117-.017-.003-.001.003.001Zm-.192-.03h-.005.005Zm-.034-.004-.011-.001.011.001Zm-.039-.006-.012-.002a.023.023 0 0 0 .012.002Zm-.035-.005-.02-.003c.006.002.014.002.02.003Zm-.038-.006c-.008 0-.014-.002-.022-.003l.022.003Zm-.042-.006-.02-.002.02.002Zm-.041-.005-.019-.003.019.003Zm-.039-.006-.023-.003.023.003Zm-.041-.006-.022-.003c.009.001.014.003.022.003Zm-.04-.006-.02-.002.02.002Zm-.042-.005-.018-.003.018.003Zm-.04-.006-.024-.003.024.003Zm-.04-.005-.032-.006.032.006Zm-.04-.006a.314.314 0 0 1-.038-.006l.038.006Zm-.047-.006c-.013-.003-.022-.003-.034-.007l.034.007Zm-.045-.007a.74.74 0 0 0-.031-.004l.031.004Zm-.043-.006-.028-.004.028.004Zm-.043-.006Zm-.04-.006-.026-.003.026.003Zm-.04-.005-.028-.005.028.005Zm-.039-.006-.03-.003.03.003Zm-.043-.005-.029-.004.029.004Zm-.04-.006Zm-.041-.006Zm-.04-.005-.034-.004.034.004Zm-.042-.006-.038-.005.038.005Zm-.038-.005-.042-.004.042.004Zm-.042-.004Zm-.253-.034-.039-.005.039.005Zm-.042-.005-.04-.005.04.005Zm-.04-.006-.083-.01.083.01Zm-.086-.01Zm-.04-.006-.04-.004.04.004Zm-.041-.004Zm-6.921-.54h-.041.041Zm-.043 0c-.014-.002-.027-.002-.041-.002.014 0 .028 0 .041.002Zm-.042-.002-.04-.001.04.001Zm-.045-.001-.037-.002.037.002Zm-.043-.002c-.011 0-.026 0-.037-.002a.279.279 0 0 0 .037.002Zm-.043-.002h-.039.039Zm-.042 0-.039-.001a.33.33 0 0 1 .039.002Zm-.043-.001Zm-.261-.008h-.039.039Zm-.041 0-.039-.001.039.001Zm-.047-.001h-.034.034Zm-.044 0c-.01-.002-.021-.002-.032-.002.01 0 .022 0 .032.002Zm-.043-.002h-.03.03Zm-.043-.001h-.027.027Zm-.044 0c-.009 0-.017 0-.026-.002.009.002.018.002.026.002Zm-.042-.002h-.027.027Zm-.041 0-.028-.002.028.002Zm-.043-.002h-.025.025Zm-.042 0-.026-.001a.131.131 0 0 0 .026.002Zm-.042-.001h-.032.032Zm-.042 0c-.014 0-.027 0-.042-.002a.295.295 0 0 0 .042.002Zm-.042-.002-.113-.001.113.001Zm-1.78-.007.293-.002h.032c-.109.002-.216.002-.325.002Z"/><path fill="#FCD199" d="M40.357 62.752c12.019-24.828 37.22-42.02 66.123-42.352.093-.003.185-.005.279-.006l.326-.002h.262c.358 0 .719.003 1.079.008l.113.002a.36.36 0 0 1 .042.001h.057a.11.11 0 0 1 .026.002h.058l.027.001h.058c.009 0 .017 0 .026.002h.057l.03.001h.053a.258.258 0 0 0 .034.002h.008c.015 0 .024 0 .039.002h.046l.256.007h.047c.014.002.024.002.038.002h.006l.037.001h.006a.23.23 0 0 1 .037.002h.005l.04.001h.044a.36.36 0 0 0 .042.002h.001c2.334.073 4.641.254 6.918.54h.002l.04.005.041.004.003.002.082.009.04.006h.003l.038.005h.003c.085.01.168.022.251.033l.042.006.038.004.009.002.034.005.008.001.031.003c.004.002.007.002.012.002a.897.897 0 0 0 .029.004l.011.002.029.003c.003.002.009.002.012.002l.031.004.011.002a.826.826 0 0 0 .041.006l.027.003a.039.039 0 0 0 .015.002l.025.004.016.002a.165.165 0 0 0 .027.003c.003.002.01.002.013.003l.031.003c.003.002.006.002.009.002l.034.004.009.002a.351.351 0 0 1 .039.006h.008l.033.005c.004.001.01.001.014.003l.026.003.02.003.019.002a.095.095 0 0 0 .021.003l.02.003.02.003.02.003.019.003c.008 0 .015.002.023.003l.02.003.018.002a.104.104 0 0 0 .022.003.07.07 0 0 0 .02.003.087.087 0 0 0 .021.003l.02.003.019.003.02.003c.006 0 .017.002.023.004l.012.001.028.005.011.001.029.005h.004l.19.028h.003l.078.012c.012.002.025.003.037.007h.003l.035.004.005.002.035.004h.002a.298.298 0 0 0 .037.007h.003c.012.003.026.004.037.006.014.001.026.005.038.006h.002c23.292 3.6 43.026 18.09 53.943 38.154-12.673-17.855-32.392-30.27-55.053-33.123-.48 2.763-5.004 4.93-10.517 4.93-5.415 0-9.875-2.091-10.486-4.784-13.364 1.882-25.72 7.13-36.171 14.87l.055-.105v.002c-.109.1-.218.203-.326.305a81.303 81.303 0 0 0-19.766 21.242Z"/><path fill="#5B6D54" d="m118.111 112.075.071-.03-.071.03Zm.09-.038a.749.749 0 0 0 .05-.021l-.05.021Zm.073-.031c.016-.007.036-.014.051-.022-.016.008-.034.015-.051.022Zm.069-.029.068-.029-.068.029Zm.071-.03.074-.031-.074.031Zm.078-.033c.021-.009.045-.018.066-.029a.946.946 0 0 1-.066.029Zm.079-.034a.817.817 0 0 0 .062-.026l-.062.026Zm.072-.031c.023-.009.046-.018.069-.029-.022.011-.046.02-.069.029Zm.071-.03c.052-.021.099-.042.149-.064a5.132 5.132 0 0 1-.149.064Zm.155-.066.067-.029-.067.029Zm.074-.032.297-.126-.297.126Zm.299-.129.672-.289c-.224.097-.448.194-.672.289Zm.675-.291.295-.129-.295.129Zm.298-.131.295-.129-.295.129Zm.301-.132.292-.129-.292.129Zm.299-.132.066-.03-.066.03Zm.072-.032.218-.097-.218.097Zm.227-.101.061-.028-.061.028Zm.073-.033.069-.03-.069.03Zm.069-.031Zm.157-.07.059-.026-.059.026Zm.072-.032.059-.027c-.018.009-.04.017-.059.027Zm.073-.033.138-.062-.138.062Zm.159-.072Zm.071-.032.047-.021a.669.669 0 0 0-.047.021Zm.069-.032.055-.024-.055.024Zm.069-.031.068-.03-.068.03Zm.085-.038.051-.022-.051.022Zm.076-.035.041-.018-.041.018Zm.072-.032.036-.016a.392.392 0 0 0-.036.016Zm.067-.031.034-.015-.034.015Zm.099-.045.029-.013-.029.013Zm.068-.031a.192.192 0 0 0 .025-.012l-.025.012Zm.066-.031.024-.01-.024.01Zm.068-.031Zm.176-.08.007-.003-.007.003Zm.063-.029.002-.001-.002.001Z"/><path fill="#BF6700" d="M70.388 122.608c-5.703 0-11.257-.519-16.6-1.582a71.617 71.617 0 0 1-7.738-2.389c-4.642-1.733-7.966-5.887-8.72-10.822a76.284 76.284 0 0 1-.861-12.851c.364-21.08 9.427-40.036 23.654-53.454.09-.069.18-.136.271-.203A74.874 74.874 0 0 0 51.63 75.93c-.108 12.853 8.95 23.895 21.468 26.291 5.17.989 10.53 1.472 16.032 1.472 15.196 0 31.469-3.682 47.739-10.539 11.547-4.868 22.04-10.899 31.053-17.917-10.585 14.259-26.315 26.113-45.152 34.785l-.003.002-.056.025c-.003.002-.004.003-.007.003-.058.027-.113.053-.171.078l-.004.003-.044.02-.024.01-.041.02-.026.011c-.015.006-.024.012-.038.017l-.029.015c-.022.008-.043.02-.066.029l-.034.016a.423.423 0 0 0-.031.014l-.035.016a.423.423 0 0 0-.031.014l-.041.019c-.009.004-.017.007-.025.013l-.051.021-.017.008c-.021.009-.047.02-.068.032l-.014.004c-.018.01-.037.017-.055.026a.54.54 0 0 0-.162.074l-.137.061-.014.007-.059.026-.013.005-.058.027a.052.052 0 0 0-.013.006l-.145.064h-.001l-.068.031c-.003.002-.009.003-.013.006l-.06.027-.01.004-.217.097-.006.003c-.023.008-.045.02-.066.028l-.007.003-.292.13-.006.004-.295.128-.003.001-.296.13-.003.001c-.224.099-.447.194-.671.291l-.003.001-.296.128c-.003 0-.004.002-.007.003l-.068.028a6.575 6.575 0 0 1-.154.066l-.003.001a2.366 2.366 0 0 1-.141.06l-.012.006a.788.788 0 0 1-.067.028l-.004.002a3.959 3.959 0 0 1-.073.031l-.003.001-.068.029c-.007.003-.012.006-.018.007l-.051.023c-.007.003-.015.005-.022.01a.601.601 0 0 0-.051.021c-.007.001-.014.006-.02.007-.024.012-.046.02-.07.03-16.267 6.857-32.532 10.534-47.724 10.534Z"/><path fill="#D19982" d="M60.123 41.509c.109-.103.217-.204.327-.305v-.001l-.056.105-.271.2Z"/><path fill="#FCE69F" d="M70.793 49.101c-.771 2.446-2.103 4.236-2.951 3.964-.848-.273-.911-2.509-.14-4.956.77-2.446 2.103-4.236 2.951-3.964.795.256.91 2.24.262 4.546l-.122.41Zm12.588 1.576c-.435 2.53-1.515 4.485-2.392 4.331-.877-.153-1.24-2.36-.805-4.89.436-2.53 1.516-4.485 2.392-4.332.822.144 1.202 2.095.871 4.469l-.066.422Zm16.25-.508c.355 2.542-.079 4.737-.96 4.862-.882.125-1.898-1.864-2.253-4.407-.354-2.542.08-4.737.961-4.861.826-.117 1.781 1.621 2.187 3.984l.065.422Zm13.59-5.258c1.346 2.178 1.832 4.362 1.077 4.837-.754.476-2.485-.927-3.83-3.105-1.348-2.178-1.833-4.362-1.079-4.837.708-.445 2.28.754 3.6 2.747l.232.358Zm10.422-8.718c1.806 1.81 2.772 3.825 2.144 4.462-.629.636-2.628-.331-4.432-2.142-1.804-1.811-2.772-3.825-2.144-4.462.589-.596 2.391.209 4.129 1.845l.303.297Z"/><path fill="#BF6700" d="M72.47 90.618a1.538 1.538 0 0 1-1.532-1.545c0-.855.684-1.547 1.531-1.547a1.54 1.54 0 0 1 1.532 1.547c0 .853-.686 1.545-1.532 1.545Zm24.71-14.683a1.54 1.54 0 0 1-1.532-1.546 1.54 1.54 0 0 1 1.532-1.547 1.54 1.54 0 0 1 1.532 1.547 1.54 1.54 0 0 1-1.532 1.546Z"/><path fill="#E99335" d="M102.243 92.02a1.538 1.538 0 0 1-1.532-1.545c0-.854.685-1.546 1.532-1.546a1.54 1.54 0 0 1 1.532 1.546 1.54 1.54 0 0 1-1.532 1.544Zm14.785-18.92a1.538 1.538 0 0 1-1.532-1.546c0-.853.685-1.545 1.532-1.545.846 0 1.532.692 1.532 1.545 0 .854-.686 1.546-1.532 1.546Z"/><path fill="#BF6700" d="M132.845 85.75a1.54 1.54 0 0 1-1.533-1.545 1.54 1.54 0 0 1 1.533-1.546c.847 0 1.533.69 1.533 1.546 0 .852-.686 1.544-1.533 1.544Zm2.048-23.387a1.539 1.539 0 0 1-1.532-1.545 1.54 1.54 0 0 1 1.532-1.547c.847 0 1.532.692 1.532 1.547 0 .853-.685 1.545-1.532 1.545Zm11.014-13.245a1.539 1.539 0 0 1-1.532-1.545 1.54 1.54 0 0 1 1.532-1.546 1.54 1.54 0 0 1 1.533 1.546 1.54 1.54 0 0 1-1.533 1.545Z"/><path fill="#E99335" d="M72.776 74.566a1.54 1.54 0 0 1-1.532-1.546c0-.853.686-1.545 1.532-1.545.847 0 1.533.692 1.533 1.545a1.54 1.54 0 0 1-1.533 1.546Z"/><path fill="#BF6700" d="M160.934 63.675a1.538 1.538 0 0 1-1.532-1.544 1.54 1.54 0 0 1 1.532-1.547 1.54 1.54 0 0 1 1.532 1.547c0 .853-.685 1.544-1.532 1.544Z"/><path fill="#E99335" d="M150.999 80.555a1.54 1.54 0 0 1-1.532-1.547 1.54 1.54 0 0 1 1.532-1.544c.846 0 1.532.691 1.532 1.544a1.54 1.54 0 0 1-1.532 1.547Z"/><path fill="#6D184E" d="M107.325 22c-39.591 0-72.156 32.136-72.849 72.188a74.86 74.86 0 0 0 .86 12.683c.664 4.302 3.569 7.91 7.582 9.417 20.834 7.818 47.32 5.794 74.58-5.698 23.147-9.757 41.12-23.716 51.973-40.37 2.48-3.802 2.586-8.76.273-12.627-13.075-21.872-35.965-35.175-61.229-35.584-.397-.006-.795-.01-1.19-.01ZM70.352 124.222c-10.251 0-19.823-1.647-28.546-4.921-5.093-1.911-8.78-6.486-9.62-11.937a78.133 78.133 0 0 1-.897-13.234c.352-20.385 8.606-39.469 23.242-53.733 14.63-14.26 33.821-21.944 54.035-21.605a75.504 75.504 0 0 1 37.214 10.514c10.92 6.474 20.151 15.68 26.694 26.625 2.943 4.922 2.81 11.223-.338 16.054-11.204 17.192-29.673 31.567-53.409 41.571-13.75 5.797-27.267 9.271-40.177 10.325-2.777.227-5.511.341-8.198.341Z"/><path fill="#FCAF15" d="M153.084 171.639c-.917 4.997-5.678 8.296-10.633 7.37-4.952-.927-8.224-5.73-7.304-10.727.539-2.936 1.706-2.27 3.609-1.603 1.336.469 3.033.936 5.13.159 5.989-2.219 10.117-.196 9.198 4.801Z"/><path fill="#FED78A" d="M142.435 179.006h-.001.001Zm6.102-6.355c.223-.56.394-1.151.508-1.768.425-2.306-.237-3.969-1.651-4.884.313-.03.615-.044.907-.044 3.426 0 5.43 2.03 4.792 5.628.204-1.149.13-2.133-.166-2.95-1.038 1.61-2.597 3.091-4.39 4.018Zm4.55-1.03.001-.007-.001.007Zm.004-.018.002-.018-.002.018Z"/><path fill="#D18126" d="m142.451 179.009-.015-.003.015.003Zm10.051-5.423c.26-.613.457-1.264.582-1.947l.004-.018-.004.018a9.241 9.241 0 0 1-.582 1.947Z"/><path fill="#6D184E" d="M135.148 168.282c0-.003 0-.006.002-.009-.002.003-.002.006-.002.009Z"/><path fill="#D18126" d="M142.436 179.006c-4.945-.934-8.207-5.732-7.289-10.724l.001-.008c.282-1.52.731-2.068 1.366-2.153.917 3.257 3.422 6.744 6.946 7.404.421.079.84.116 1.26.116 1.32 0 2.622-.372 3.818-.99-1.334 3.34-4.507 5.587-8.061 5.741a9.05 9.05 0 0 0 1.959.614Zm10.653-7.392Zm.006-.029v-.002.002Z"/><path fill="#D3B392" d="M144.184 179.165c3.623-.024 6.901-2.233 8.318-5.579-1.417 3.347-4.695 5.556-8.318 5.579Z"/><path fill="#D29D78" d="M144.126 179.165a9.104 9.104 0 0 1-1.674-.156l-.016-.003h-.001a9.076 9.076 0 0 1-1.958-.614c3.555-.154 6.726-2.401 8.062-5.741 1.792-.927 3.351-2.408 4.389-4.018.295.817.37 1.801.167 2.95v.002l-.003.018-.003.011-.001.007-.004.018a9.299 9.299 0 0 1-.581 1.947c-1.418 3.346-4.696 5.555-8.319 5.579h-.058Z"/><path fill="#6D184E" d="M136.926 167.754a4.78 4.78 0 0 0-.212.822 7.606 7.606 0 0 0 1.197 5.686 7.482 7.482 0 0 0 4.832 3.166 7.43 7.43 0 0 0 5.636-1.208 7.552 7.552 0 0 0 3.139-4.874c.179-.978.205-2.303-.692-3.068-1.16-.987-3.608-.96-6.39.07-2.857 1.059-5.121.242-6.62-.298a11.282 11.282 0 0 0-.89-.296Zm7.213 13.021a10.73 10.73 0 0 1-1.979-.185 10.642 10.642 0 0 1-6.876-4.507 10.812 10.812 0 0 1-1.705-8.094c.204-1.106.585-2.461 1.739-3.131 1.195-.695 2.457-.238 3.572.164 1.315.473 2.675.964 4.447.308 3.972-1.472 7.45-1.293 9.545.491 1.614 1.374 2.242 3.545 1.77 6.112a10.75 10.75 0 0 1-4.467 6.938 10.579 10.579 0 0 1-6.046 1.904Z"/><path fill="#E5525F" d="M164.947 108.257c.644.298 1.397.222 2.007-.139 2.522-1.495 10.578-6.435 11.935-9.348 1.512-3.25-18.495 7.377-13.942 9.487Z"/><path fill="#F2A40C" d="M113.502 222.457c-40.307 0-72.982-3.849-72.982-8.597 0-4.747 32.675-8.596 72.982-8.596 40.305 0 72.981 3.849 72.981 8.596 0 4.748-32.676 8.597-72.981 8.597Z"/></svg>